<mxfile host="" modified="2020-05-24T15:21:41.060Z" agent="5.0 (X11; Linux x86_64) AppleWebKit/537.36 (KHTML, like Gecko) Code/1.45.0 Chrome/78.0.3904.130 Electron/7.2.4 Safari/537.36" version="13.1.3" etag="lrwgP8mNOWNbAz78NI_h" pages="2">
            <diagram id="diagramid" name="Diagram">
              <mxGraphModel><root><mxCell id="0"/><mxCell id="1" parent="0"/><mxCell id="2" value="DependencyLayer" style="outlineConnect=0;fontColor=#B3B3B3;gradientColor=#aaaaaa;gradientDirection=north;fillColor=#aaaaaa;strokeColor=#ffffff;dashed=0;verticalLabelPosition=bottom;verticalAlign=top;align=center;html=1;fontSize=12;fontStyle=0;aspect=fixed;shape=mxgraph.aws4.resourceIcon;resIcon=mxgraph.aws4.serverless;" vertex="1" parent="1"><mxGeometry y="1450" width="50" height="50" as="geometry"/></mxCell><mxCell id="3" value="ParksApi" style="outlineConnect=0;fontColor=#B3B3B3;gradientColor=#945DF2;gradientDirection=north;fillColor=#5A30B5;strokeColor=#ffffff;dashed=0;verticalLabelPosition=bottom;verticalAlign=top;align=center;html=1;fontSize=12;fontStyle=0;aspect=fixed;shape=mxgraph.aws4.resourceIcon;resIcon=mxgraph.aws4.api_gateway;" vertex="1" parent="1"><mxGeometry y="250" width="50" height="50" as="geometry"/></mxCell><mxCell id="4" value="UsersApi" style="outlineConnect=0;fontColor=#B3B3B3;gradientColor=#945DF2;gradientDirection=north;fillColor=#5A30B5;strokeColor=#ffffff;dashed=0;verticalLabelPosition=bottom;verticalAlign=top;align=center;html=1;fontSize=12;fontStyle=0;aspect=fixed;shape=mxgraph.aws4.resourceIcon;resIcon=mxgraph.aws4.api_gateway;" vertex="1" parent="1"><mxGeometry y="400" width="50" height="50" as="geometry"/></mxCell><mxCell id="5" value="ParkTable" style="outlineConnect=0;fontColor=#B3B3B3;gradientColor=#4D72F3;gradientDirection=north;fillColor=#3334B9;strokeColor=#ffffff;dashed=0;verticalLabelPosition=bottom;verticalAlign=top;align=center;html=1;fontSize=12;fontStyle=0;aspect=fixed;shape=mxgraph.aws4.resourceIcon;resIcon=mxgraph.aws4.dynamodb;" vertex="1" parent="1"><mxGeometry y="1600" width="50" height="50" as="geometry"/></mxCell><mxCell id="6" value="JwtSignatureSecret" style="outlineConnect=0;fontColor=#B3B3B3;gradientColor=#F54749;gradientDirection=north;fillColor=#C7131F;strokeColor=#ffffff;dashed=0;verticalLabelPosition=bottom;verticalAlign=top;align=center;html=1;fontSize=12;fontStyle=0;aspect=fixed;shape=mxgraph.aws4.resourceIcon;resIcon=mxgraph.aws4.secretsmanager;" vertex="1" parent="1"><mxGeometry x="500" y="200" width="50" height="50" as="geometry"/></mxCell><mxCell id="7" value="AuthorizerFunction" style="outlineConnect=0;fontColor=#B3B3B3;gradientColor=#F78E04;gradientDirection=north;fillColor=#D05C17;strokeColor=#ffffff;dashed=0;verticalLabelPosition=bottom;verticalAlign=top;align=center;html=1;fontSize=12;fontStyle=0;aspect=fixed;shape=mxgraph.aws4.resourceIcon;resIcon=mxgraph.aws4.lambda;" vertex="1" parent="1"><mxGeometry x="250" y="250" width="50" height="50" as="geometry"/></mxCell><mxCell id="8" value="GetParksRole" style="outlineConnect=0;fontColor=#B3B3B3;gradientColor=#F54749;gradientDirection=north;fillColor=#C7131F;strokeColor=#ffffff;dashed=0;verticalLabelPosition=bottom;verticalAlign=top;align=center;html=1;fontSize=12;fontStyle=0;aspect=fixed;shape=mxgraph.aws4.resourceIcon;resIcon=mxgraph.aws4.role;" vertex="1" parent="1"><mxGeometry width="50" height="50" as="geometry"/></mxCell><mxCell id="9" value="CreateJwtFunction" style="outlineConnect=0;fontColor=#B3B3B3;gradientColor=#F78E04;gradientDirection=north;fillColor=#D05C17;strokeColor=#ffffff;dashed=0;verticalLabelPosition=bottom;verticalAlign=top;align=center;html=1;fontSize=12;fontStyle=0;aspect=fixed;shape=mxgraph.aws4.resourceIcon;resIcon=mxgraph.aws4.lambda;" vertex="1" parent="1"><mxGeometry x="250" y="150" width="50" height="50" as="geometry"/></mxCell><mxCell id="10" value="GenerateRolePoliciesFunction" style="outlineConnect=0;fontColor=#B3B3B3;gradientColor=#F78E04;gradientDirection=north;fillColor=#D05C17;strokeColor=#ffffff;dashed=0;verticalLabelPosition=bottom;verticalAlign=top;align=center;html=1;fontSize=12;fontStyle=0;aspect=fixed;shape=mxgraph.aws4.resourceIcon;resIcon=mxgraph.aws4.lambda;" vertex="1" parent="1"><mxGeometry y="725" width="50" height="50" as="geometry"/></mxCell><mxCell id="11" value="SubscribeWebhookStateMachine" style="outlineConnect=0;fontColor=#B3B3B3;gradientColor=#F34482;gradientDirection=north;fillColor=#BC1356;strokeColor=#ffffff;dashed=0;verticalLabelPosition=bottom;verticalAlign=top;align=center;html=1;fontSize=12;fontStyle=0;aspect=fixed;shape=mxgraph.aws4.resourceIcon;resIcon=mxgraph.aws4.step_functions;" vertex="1" parent="1"><mxGeometry x="250" y="1200" width="50" height="50" as="geometry"/></mxCell><mxCell id="12" value="SubscribeWebhookLogGroup" style="outlineConnect=0;fontColor=#B3B3B3;gradientColor=#F34482;gradientDirection=north;fillColor=#BC1356;strokeColor=#ffffff;dashed=0;verticalLabelPosition=bottom;verticalAlign=top;align=center;html=1;fontSize=12;fontStyle=0;aspect=fixed;shape=mxgraph.aws4.resourceIcon;resIcon=mxgraph.aws4.cloudwatch;" vertex="1" parent="1"><mxGeometry x="500" y="775" width="50" height="50" as="geometry"/></mxCell><mxCell id="13" value="SubscribeWebhookRole" style="outlineConnect=0;fontColor=#B3B3B3;gradientColor=#F54749;gradientDirection=north;fillColor=#C7131F;strokeColor=#ffffff;dashed=0;verticalLabelPosition=bottom;verticalAlign=top;align=center;html=1;fontSize=12;fontStyle=0;aspect=fixed;shape=mxgraph.aws4.resourceIcon;resIcon=mxgraph.aws4.role;" vertex="1" parent="1"><mxGeometry y="825" width="50" height="50" as="geometry"/></mxCell><mxCell id="14" value="UpdateParkStatusStateMachine" style="outlineConnect=0;fontColor=#B3B3B3;gradientColor=#F34482;gradientDirection=north;fillColor=#BC1356;strokeColor=#ffffff;dashed=0;verticalLabelPosition=bottom;verticalAlign=top;align=center;html=1;fontSize=12;fontStyle=0;aspect=fixed;shape=mxgraph.aws4.resourceIcon;resIcon=mxgraph.aws4.step_functions;" vertex="1" parent="1"><mxGeometry x="250" y="1300" width="50" height="50" as="geometry"/></mxCell><mxCell id="15" value="UpdateParkStatusLogGroup" style="outlineConnect=0;fontColor=#B3B3B3;gradientColor=#F34482;gradientDirection=north;fillColor=#BC1356;strokeColor=#ffffff;dashed=0;verticalLabelPosition=bottom;verticalAlign=top;align=center;html=1;fontSize=12;fontStyle=0;aspect=fixed;shape=mxgraph.aws4.resourceIcon;resIcon=mxgraph.aws4.cloudwatch;" vertex="1" parent="1"><mxGeometry x="500" y="1300" width="50" height="50" as="geometry"/></mxCell><mxCell id="16" value="UpdateParkStatusRole" style="outlineConnect=0;fontColor=#B3B3B3;gradientColor=#F54749;gradientDirection=north;fillColor=#C7131F;strokeColor=#ffffff;dashed=0;verticalLabelPosition=bottom;verticalAlign=top;align=center;html=1;fontSize=12;fontStyle=0;aspect=fixed;shape=mxgraph.aws4.resourceIcon;resIcon=mxgraph.aws4.role;" vertex="1" parent="1"><mxGeometry y="1300" width="50" height="50" as="geometry"/></mxCell><mxCell id="17" value="AddParkRole" style="outlineConnect=0;fontColor=#B3B3B3;gradientColor=#F54749;gradientDirection=north;fillColor=#C7131F;strokeColor=#ffffff;dashed=0;verticalLabelPosition=bottom;verticalAlign=top;align=center;html=1;fontSize=12;fontStyle=0;aspect=fixed;shape=mxgraph.aws4.resourceIcon;resIcon=mxgraph.aws4.role;" vertex="1" parent="1"><mxGeometry x="250" y="900" width="50" height="50" as="geometry"/></mxCell><mxCell id="18" value="UpdateActiveTenantFunction" style="outlineConnect=0;fontColor=#B3B3B3;gradientColor=#F78E04;gradientDirection=north;fillColor=#D05C17;strokeColor=#ffffff;dashed=0;verticalLabelPosition=bottom;verticalAlign=top;align=center;html=1;fontSize=12;fontStyle=0;aspect=fixed;shape=mxgraph.aws4.resourceIcon;resIcon=mxgraph.aws4.lambda;" vertex="1" parent="1"><mxGeometry x="250" y="350" width="50" height="50" as="geometry"/></mxCell><mxCell id="19" value="UpdateTenantRolesFunction" style="outlineConnect=0;fontColor=#B3B3B3;gradientColor=#F78E04;gradientDirection=north;fillColor=#D05C17;strokeColor=#ffffff;dashed=0;verticalLabelPosition=bottom;verticalAlign=top;align=center;html=1;fontSize=12;fontStyle=0;aspect=fixed;shape=mxgraph.aws4.resourceIcon;resIcon=mxgraph.aws4.lambda;" vertex="1" parent="1"><mxGeometry x="250" y="450" width="50" height="50" as="geometry"/></mxCell><mxCell id="20" value="AddTenantToUserFunction" style="outlineConnect=0;fontColor=#B3B3B3;gradientColor=#F78E04;gradientDirection=north;fillColor=#D05C17;strokeColor=#ffffff;dashed=0;verticalLabelPosition=bottom;verticalAlign=top;align=center;html=1;fontSize=12;fontStyle=0;aspect=fixed;shape=mxgraph.aws4.resourceIcon;resIcon=mxgraph.aws4.lambda;" vertex="1" parent="1"><mxGeometry x="250" y="550" width="50" height="50" as="geometry"/></mxCell><mxCell id="21" value="GetTenantsRole" style="outlineConnect=0;fontColor=#B3B3B3;gradientColor=#F54749;gradientDirection=north;fillColor=#C7131F;strokeColor=#ffffff;dashed=0;verticalLabelPosition=bottom;verticalAlign=top;align=center;html=1;fontSize=12;fontStyle=0;aspect=fixed;shape=mxgraph.aws4.resourceIcon;resIcon=mxgraph.aws4.role;" vertex="1" parent="1"><mxGeometry x="250" y="1000" width="50" height="50" as="geometry"/></mxCell><mxCell id="22" value="GetUserSettingsRole" style="outlineConnect=0;fontColor=#B3B3B3;gradientColor=#F54749;gradientDirection=north;fillColor=#C7131F;strokeColor=#ffffff;dashed=0;verticalLabelPosition=bottom;verticalAlign=top;align=center;html=1;fontSize=12;fontStyle=0;aspect=fixed;shape=mxgraph.aws4.resourceIcon;resIcon=mxgraph.aws4.role;" vertex="1" parent="1"><mxGeometry x="250" y="1100" width="50" height="50" as="geometry"/></mxCell><mxCell id="23" value="dynamodb  &#xA;table/${tablename}" style="outlineConnect=0;fontColor=#B3B3B3;gradientColor=#aaaaaa;gradientDirection=north;fillColor=#aaaaaa;strokeColor=#ffffff;dashed=0;verticalLabelPosition=bottom;verticalAlign=top;align=center;html=1;fontSize=12;fontStyle=0;aspect=fixed;shape=mxgraph.aws4.resourceIcon;resIcon=mxgraph.aws4.dynamodb;" vertex="1" parent="1"><mxGeometry x="500" y="375" width="50" height="50" as="geometry"/></mxCell><mxCell id="24" value="dynamodb  &#xA;table/${tablename}/index/${gsi1}" style="outlineConnect=0;fontColor=#B3B3B3;gradientColor=#aaaaaa;gradientDirection=north;fillColor=#aaaaaa;strokeColor=#ffffff;dashed=0;verticalLabelPosition=bottom;verticalAlign=top;align=center;html=1;fontSize=12;fontStyle=0;aspect=fixed;shape=mxgraph.aws4.resourceIcon;resIcon=mxgraph.aws4.dynamodb;" vertex="1" parent="1"><mxGeometry x="250" width="50" height="50" as="geometry"/></mxCell><mxCell id="25" value="execute-api  &#xA;${parksapi}/${stage}" style="outlineConnect=0;fontColor=#B3B3B3;gradientColor=#aaaaaa;gradientDirection=north;fillColor=#aaaaaa;strokeColor=#ffffff;dashed=0;verticalLabelPosition=bottom;verticalAlign=top;align=center;html=1;fontSize=12;fontStyle=0;aspect=fixed;shape=mxgraph.aws4.resourceIcon;resIcon=mxgraph.aws4.execute-api;" vertex="1" parent="1"><mxGeometry x="250" y="650" width="50" height="50" as="geometry"/></mxCell><mxCell id="26" value="execute-api  &#xA;${usersapi}/${stage}" style="outlineConnect=0;fontColor=#B3B3B3;gradientColor=#aaaaaa;gradientDirection=north;fillColor=#aaaaaa;strokeColor=#ffffff;dashed=0;verticalLabelPosition=bottom;verticalAlign=top;align=center;html=1;fontSize=12;fontStyle=0;aspect=fixed;shape=mxgraph.aws4.resourceIcon;resIcon=mxgraph.aws4.execute-api;" vertex="1" parent="1"><mxGeometry x="250" y="750" width="50" height="50" as="geometry"/></mxCell><mxCell id="27" value="states  &#xA;getitem" style="outlineConnect=0;fontColor=#B3B3B3;gradientColor=#aaaaaa;gradientDirection=north;fillColor=#aaaaaa;strokeColor=#ffffff;dashed=0;verticalLabelPosition=bottom;verticalAlign=top;align=center;html=1;fontSize=12;fontStyle=0;aspect=fixed;shape=mxgraph.aws4.resourceIcon;resIcon=mxgraph.aws4.states;" vertex="1" parent="1"><mxGeometry x="500" y="875" width="50" height="50" as="geometry"/></mxCell><mxCell id="28" value="states  &#xA;subscribe" style="outlineConnect=0;fontColor=#B3B3B3;gradientColor=#aaaaaa;gradientDirection=north;fillColor=#aaaaaa;strokeColor=#ffffff;dashed=0;verticalLabelPosition=bottom;verticalAlign=top;align=center;html=1;fontSize=12;fontStyle=0;aspect=fixed;shape=mxgraph.aws4.resourceIcon;resIcon=mxgraph.aws4.states;" vertex="1" parent="1"><mxGeometry x="500" y="475" width="50" height="50" as="geometry"/></mxCell><mxCell id="29" value="states  &#xA;putitem" style="outlineConnect=0;fontColor=#B3B3B3;gradientColor=#aaaaaa;gradientDirection=north;fillColor=#aaaaaa;strokeColor=#ffffff;dashed=0;verticalLabelPosition=bottom;verticalAlign=top;align=center;html=1;fontSize=12;fontStyle=0;aspect=fixed;shape=mxgraph.aws4.resourceIcon;resIcon=mxgraph.aws4.states;" vertex="1" parent="1"><mxGeometry x="500" y="575" width="50" height="50" as="geometry"/></mxCell><mxCell id="30" value="states  &#xA;createtopic" style="outlineConnect=0;fontColor=#B3B3B3;gradientColor=#aaaaaa;gradientDirection=north;fillColor=#aaaaaa;strokeColor=#ffffff;dashed=0;verticalLabelPosition=bottom;verticalAlign=top;align=center;html=1;fontSize=12;fontStyle=0;aspect=fixed;shape=mxgraph.aws4.resourceIcon;resIcon=mxgraph.aws4.states;" vertex="1" parent="1"><mxGeometry x="500" y="675" width="50" height="50" as="geometry"/></mxCell><mxCell id="31" value="states  &#xA;updateitem" style="outlineConnect=0;fontColor=#B3B3B3;gradientColor=#aaaaaa;gradientDirection=north;fillColor=#aaaaaa;strokeColor=#ffffff;dashed=0;verticalLabelPosition=bottom;verticalAlign=top;align=center;html=1;fontSize=12;fontStyle=0;aspect=fixed;shape=mxgraph.aws4.resourceIcon;resIcon=mxgraph.aws4.states;" vertex="1" parent="1"><mxGeometry x="500" y="975" width="50" height="50" as="geometry"/></mxCell><mxCell id="32" value="states  &#xA;publish" style="outlineConnect=0;fontColor=#B3B3B3;gradientColor=#aaaaaa;gradientDirection=north;fillColor=#aaaaaa;strokeColor=#ffffff;dashed=0;verticalLabelPosition=bottom;verticalAlign=top;align=center;html=1;fontSize=12;fontStyle=0;aspect=fixed;shape=mxgraph.aws4.resourceIcon;resIcon=mxgraph.aws4.states;" vertex="1" parent="1"><mxGeometry x="500" y="1075" width="50" height="50" as="geometry"/></mxCell><mxCell id="AuthorizerFunction|ParksApi" value="FunctionArn" style="edgeStyle=orthogonalEdgeStyle;rounded=1;orthogonalLoop=1;jettySize=auto;html=1;labelBackgroundColor=none;fontColor=#EA6B66;noEdgeStyle=1;orthogonal=1;" edge="1" parent="1" source="3" target="7"><mxGeometry relative="1" as="geometry"><Array as="points"><mxPoint x="62" y="275"/><mxPoint x="238" y="265"/></Array></mxGeometry></mxCell><mxCell id="AuthorizerFunction|UsersApi" value="FunctionArn" style="edgeStyle=orthogonalEdgeStyle;rounded=1;orthogonalLoop=1;jettySize=auto;html=1;labelBackgroundColor=none;fontColor=#EA6B66;noEdgeStyle=1;orthogonal=1;" edge="1" parent="1" source="4" target="7"><mxGeometry relative="1" as="geometry"><Array as="points"><mxPoint x="62" y="410"/><mxPoint x="238" y="285"/></Array></mxGeometry></mxCell><mxCell id="JwtSignatureSecret|AuthorizerFunction" value="Variable&#xA;Statement" style="edgeStyle=orthogonalEdgeStyle;rounded=1;orthogonalLoop=1;jettySize=auto;html=1;labelBackgroundColor=none;fontColor=#EA6B66;noEdgeStyle=1;orthogonal=1;" edge="1" parent="1" source="7" target="6"><mxGeometry relative="1" as="geometry"><Array as="points"><mxPoint x="312" y="265"/><mxPoint x="488" y="235"/></Array></mxGeometry></mxCell><mxCell id="dynamodb  &#xA;table/${tablename}|AuthorizerFunction" value="Statement" style="edgeStyle=orthogonalEdgeStyle;rounded=1;orthogonalLoop=1;jettySize=auto;html=1;labelBackgroundColor=none;fontColor=#EA6B66;noEdgeStyle=1;orthogonal=1;" edge="1" parent="1" source="7" target="23"><mxGeometry relative="1" as="geometry"><Array as="points"><mxPoint x="312" y="285"/><mxPoint x="488" y="377.5"/></Array></mxGeometry></mxCell><mxCell id="dynamodb  &#xA;table/${tablename}/index/${gsi1}|GetParksRole" value="PolicyDocument" style="edgeStyle=orthogonalEdgeStyle;rounded=1;orthogonalLoop=1;jettySize=auto;html=1;labelBackgroundColor=none;fontColor=#EA6B66;noEdgeStyle=1;orthogonal=1;" edge="1" parent="1" source="8" target="24"><mxGeometry relative="1" as="geometry"><Array as="points"><mxPoint x="62" y="25"/><mxPoint x="238" y="25"/></Array></mxGeometry></mxCell><mxCell id="JwtSignatureSecret|CreateJwtFunction" value="Variable&#xA;Statement" style="edgeStyle=orthogonalEdgeStyle;rounded=1;orthogonalLoop=1;jettySize=auto;html=1;labelBackgroundColor=none;fontColor=#EA6B66;noEdgeStyle=1;orthogonal=1;" edge="1" parent="1" source="9" target="6"><mxGeometry relative="1" as="geometry"><Array as="points"><mxPoint x="312" y="175"/><mxPoint x="488" y="215"/></Array></mxGeometry></mxCell><mxCell id="execute-api  &#xA;${parksapi}/${stage}|GenerateRolePoliciesFunction" value="Variable" style="edgeStyle=orthogonalEdgeStyle;rounded=1;orthogonalLoop=1;jettySize=auto;html=1;labelBackgroundColor=none;fontColor=#EA6B66;noEdgeStyle=1;orthogonal=1;" edge="1" parent="1" source="10" target="25"><mxGeometry relative="1" as="geometry"><Array as="points"><mxPoint x="62" y="736.6666666666666"/><mxPoint x="238" y="675"/></Array></mxGeometry></mxCell><mxCell id="execute-api  &#xA;${usersapi}/${stage}|GenerateRolePoliciesFunction" value="Variable" style="edgeStyle=orthogonalEdgeStyle;rounded=1;orthogonalLoop=1;jettySize=auto;html=1;labelBackgroundColor=none;fontColor=#EA6B66;noEdgeStyle=1;orthogonal=1;" edge="1" parent="1" source="10" target="26"><mxGeometry relative="1" as="geometry"><Array as="points"><mxPoint x="64" y="750"/><mxPoint x="238" y="775"/></Array></mxGeometry></mxCell><mxCell id="dynamodb  &#xA;table/${tablename}|GenerateRolePoliciesFunction" value="Statement" style="edgeStyle=orthogonalEdgeStyle;rounded=1;orthogonalLoop=1;jettySize=auto;html=1;labelBackgroundColor=none;fontColor=#EA6B66;noEdgeStyle=1;orthogonal=1;" edge="1" parent="1" source="10" target="23"><mxGeometry relative="1" as="geometry"><Array as="points"><mxPoint x="62" y="763.3333333333334"/><mxPoint x="150" y="850"/><mxPoint x="400" y="850"/><mxPoint x="480" y="397.5"/></Array></mxGeometry></mxCell><mxCell id="states  &#xA;getitem|SubscribeWebhookStateMachine" value="DynamoDbGetItem" style="edgeStyle=orthogonalEdgeStyle;rounded=1;orthogonalLoop=1;jettySize=auto;html=1;labelBackgroundColor=none;fontColor=#EA6B66;noEdgeStyle=1;orthogonal=1;" edge="1" parent="1" source="11" target="27"><mxGeometry relative="1" as="geometry"><Array as="points"><mxPoint x="312" y="1241.666666666667"/><mxPoint x="488" y="890"/></Array></mxGeometry></mxCell><mxCell id="states  &#xA;subscribe|SubscribeWebhookStateMachine" value="SnsSubscribe" style="edgeStyle=orthogonalEdgeStyle;rounded=1;orthogonalLoop=1;jettySize=auto;html=1;labelBackgroundColor=none;fontColor=#EA6B66;noEdgeStyle=1;orthogonal=1;" edge="1" parent="1" source="11" target="28"><mxGeometry relative="1" as="geometry"><Array as="points"><mxPoint x="314" y="1215"/><mxPoint x="488" y="500"/></Array></mxGeometry></mxCell><mxCell id="states  &#xA;putitem|SubscribeWebhookStateMachine" value="DynamoDbPutItem" style="edgeStyle=orthogonalEdgeStyle;rounded=1;orthogonalLoop=1;jettySize=auto;html=1;labelBackgroundColor=none;fontColor=#EA6B66;noEdgeStyle=1;orthogonal=1;" edge="1" parent="1" source="11" target="29"><mxGeometry relative="1" as="geometry"><Array as="points"><mxPoint x="316" y="1221.6666666666667"/><mxPoint x="488" y="600"/></Array></mxGeometry></mxCell><mxCell id="states  &#xA;createtopic|SubscribeWebhookStateMachine" value="SnsCreateTopic" style="edgeStyle=orthogonalEdgeStyle;rounded=1;orthogonalLoop=1;jettySize=auto;html=1;labelBackgroundColor=none;fontColor=#EA6B66;noEdgeStyle=1;orthogonal=1;" edge="1" parent="1" source="11" target="30"><mxGeometry relative="1" as="geometry"><Array as="points"><mxPoint x="316" y="1228.3333333333335"/><mxPoint x="488" y="700"/></Array></mxGeometry></mxCell><mxCell id="dynamodb  &#xA;table/${tablename}|SubscribeWebhookStateMachine" value="Statement" style="edgeStyle=orthogonalEdgeStyle;rounded=1;orthogonalLoop=1;jettySize=auto;html=1;labelBackgroundColor=none;fontColor=#EA6B66;noEdgeStyle=1;orthogonal=1;" edge="1" parent="1" source="11" target="23"><mxGeometry relative="1" as="geometry"><Array as="points"><mxPoint x="312" y="1208.3333333333333"/><mxPoint x="486" y="417.5"/></Array></mxGeometry></mxCell><mxCell id="SubscribeWebhookLogGroup|SubscribeWebhookStateMachine" value="LogGroupArn" style="edgeStyle=orthogonalEdgeStyle;rounded=1;orthogonalLoop=1;jettySize=auto;html=1;labelBackgroundColor=none;fontColor=#EA6B66;noEdgeStyle=1;orthogonal=1;" edge="1" parent="1" source="11" target="12"><mxGeometry relative="1" as="geometry"><Array as="points"><mxPoint x="314" y="1235.0000000000002"/><mxPoint x="488" y="800"/></Array></mxGeometry></mxCell><mxCell id="SubscribeWebhookStateMachine|SubscribeWebhookRole" value="PolicyDocument" style="edgeStyle=orthogonalEdgeStyle;rounded=1;orthogonalLoop=1;jettySize=auto;html=1;labelBackgroundColor=none;fontColor=#EA6B66;noEdgeStyle=1;orthogonal=1;" edge="1" parent="1" source="13" target="11"><mxGeometry relative="1" as="geometry"><Array as="points"><mxPoint x="62" y="850"/><mxPoint x="238" y="1225"/></Array></mxGeometry></mxCell><mxCell id="states  &#xA;updateitem|UpdateParkStatusStateMachine" value="DynamoDbUpdateItem" style="edgeStyle=orthogonalEdgeStyle;rounded=1;orthogonalLoop=1;jettySize=auto;html=1;labelBackgroundColor=none;fontColor=#EA6B66;noEdgeStyle=1;orthogonal=1;" edge="1" parent="1" source="14" target="31"><mxGeometry relative="1" as="geometry"><Array as="points"><mxPoint x="316" y="1325"/><mxPoint x="488" y="1000"/></Array></mxGeometry></mxCell><mxCell id="states  &#xA;getitem|UpdateParkStatusStateMachine" value="DynamoDbGetItem" style="edgeStyle=orthogonalEdgeStyle;rounded=1;orthogonalLoop=1;jettySize=auto;html=1;labelBackgroundColor=none;fontColor=#EA6B66;noEdgeStyle=1;orthogonal=1;" edge="1" parent="1" source="14" target="27"><mxGeometry relative="1" as="geometry"><Array as="points"><mxPoint x="314" y="1317"/><mxPoint x="488" y="910"/></Array></mxGeometry></mxCell><mxCell id="states  &#xA;publish|UpdateParkStatusStateMachine" value="SnsPublish" style="edgeStyle=orthogonalEdgeStyle;rounded=1;orthogonalLoop=1;jettySize=auto;html=1;labelBackgroundColor=none;fontColor=#EA6B66;noEdgeStyle=1;orthogonal=1;" edge="1" parent="1" source="14" target="32"><mxGeometry relative="1" as="geometry"><Array as="points"><mxPoint x="314" y="1333"/><mxPoint x="488" y="1100"/></Array></mxGeometry></mxCell><mxCell id="dynamodb  &#xA;table/${tablename}|UpdateParkStatusStateMachine" value="Statement" style="edgeStyle=orthogonalEdgeStyle;rounded=1;orthogonalLoop=1;jettySize=auto;html=1;labelBackgroundColor=none;fontColor=#EA6B66;noEdgeStyle=1;orthogonal=1;" edge="1" parent="1" source="14" target="23"><mxGeometry relative="1" as="geometry"><Array as="points"><mxPoint x="312" y="1309"/><mxPoint x="488" y="422.5"/></Array></mxGeometry></mxCell><mxCell id="UpdateParkStatusLogGroup|UpdateParkStatusStateMachine" value="LogGroupArn" style="edgeStyle=orthogonalEdgeStyle;rounded=1;orthogonalLoop=1;jettySize=auto;html=1;labelBackgroundColor=none;fontColor=#EA6B66;noEdgeStyle=1;orthogonal=1;" edge="1" parent="1" source="14" target="15"><mxGeometry relative="1" as="geometry"><Array as="points"><mxPoint x="312" y="1341"/><mxPoint x="488" y="1325"/></Array></mxGeometry></mxCell><mxCell id="UpdateParkStatusStateMachine|UpdateParkStatusRole" value="PolicyDocument" style="edgeStyle=orthogonalEdgeStyle;rounded=1;orthogonalLoop=1;jettySize=auto;html=1;labelBackgroundColor=none;fontColor=#EA6B66;noEdgeStyle=1;orthogonal=1;" edge="1" parent="1" source="16" target="14"><mxGeometry relative="1" as="geometry"><Array as="points"><mxPoint x="62" y="1325"/><mxPoint x="238" y="1325"/></Array></mxGeometry></mxCell><mxCell id="dynamodb  &#xA;table/${tablename}|AddParkRole" value="PolicyDocument" style="edgeStyle=orthogonalEdgeStyle;rounded=1;orthogonalLoop=1;jettySize=auto;html=1;labelBackgroundColor=none;fontColor=#EA6B66;noEdgeStyle=1;orthogonal=1;" edge="1" parent="1" source="17" target="23"><mxGeometry relative="1" as="geometry"><Array as="points"><mxPoint x="312" y="925"/><mxPoint x="480" y="402.5"/></Array></mxGeometry></mxCell><mxCell id="dynamodb  &#xA;table/${tablename}|UpdateActiveTenantFunction" value="Statement" style="edgeStyle=orthogonalEdgeStyle;rounded=1;orthogonalLoop=1;jettySize=auto;html=1;labelBackgroundColor=none;fontColor=#EA6B66;noEdgeStyle=1;orthogonal=1;" edge="1" parent="1" source="18" target="23"><mxGeometry relative="1" as="geometry"><Array as="points"><mxPoint x="312" y="375"/><mxPoint x="486" y="382.5"/></Array></mxGeometry></mxCell><mxCell id="UsersApi|UpdateActiveTenantFunction" value="Invoke" style="edgeStyle=orthogonalEdgeStyle;rounded=1;orthogonalLoop=1;jettySize=auto;html=1;fillColor=#1ba1e2;strokeColor=#006EAF;labelBackgroundColor=none;fontColor=#7EA6E0;noEdgeStyle=1;orthogonal=1;" edge="1" parent="1" source="4" target="18"><mxGeometry relative="1" as="geometry"><Array as="points"><mxPoint x="64" y="420"/><mxPoint x="238" y="375"/></Array></mxGeometry></mxCell><mxCell id="dynamodb  &#xA;table/${tablename}|UpdateTenantRolesFunction" value="Statement" style="edgeStyle=orthogonalEdgeStyle;rounded=1;orthogonalLoop=1;jettySize=auto;html=1;labelBackgroundColor=none;fontColor=#EA6B66;noEdgeStyle=1;orthogonal=1;" edge="1" parent="1" source="19" target="23"><mxGeometry relative="1" as="geometry"><Array as="points"><mxPoint x="312" y="475"/><mxPoint x="484" y="387.5"/></Array></mxGeometry></mxCell><mxCell id="UsersApi|UpdateTenantRolesFunction" value="Invoke" style="edgeStyle=orthogonalEdgeStyle;rounded=1;orthogonalLoop=1;jettySize=auto;html=1;fillColor=#1ba1e2;strokeColor=#006EAF;labelBackgroundColor=none;fontColor=#7EA6E0;noEdgeStyle=1;orthogonal=1;" edge="1" parent="1" source="4" target="19"><mxGeometry relative="1" as="geometry"><Array as="points"><mxPoint x="64" y="430"/><mxPoint x="238" y="475"/></Array></mxGeometry></mxCell><mxCell id="dynamodb  &#xA;table/${tablename}|AddTenantToUserFunction" value="Statement" style="edgeStyle=orthogonalEdgeStyle;rounded=1;orthogonalLoop=1;jettySize=auto;html=1;labelBackgroundColor=none;fontColor=#EA6B66;noEdgeStyle=1;orthogonal=1;" edge="1" parent="1" source="20" target="23"><mxGeometry relative="1" as="geometry"><Array as="points"><mxPoint x="312" y="575"/><mxPoint x="482" y="392.5"/></Array></mxGeometry></mxCell><mxCell id="UsersApi|AddTenantToUserFunction" value="Invoke" style="edgeStyle=orthogonalEdgeStyle;rounded=1;orthogonalLoop=1;jettySize=auto;html=1;fillColor=#1ba1e2;strokeColor=#006EAF;labelBackgroundColor=none;fontColor=#7EA6E0;noEdgeStyle=1;orthogonal=1;" edge="1" parent="1" source="4" target="20"><mxGeometry relative="1" as="geometry"><Array as="points"><mxPoint x="62" y="440"/><mxPoint x="238" y="575"/></Array></mxGeometry></mxCell><mxCell id="dynamodb  &#xA;table/${tablename}|GetTenantsRole" value="PolicyDocument" style="edgeStyle=orthogonalEdgeStyle;rounded=1;orthogonalLoop=1;jettySize=auto;html=1;labelBackgroundColor=none;fontColor=#EA6B66;noEdgeStyle=1;orthogonal=1;" edge="1" parent="1" source="21" target="23"><mxGeometry relative="1" as="geometry"><Array as="points"><mxPoint x="312" y="1025"/><mxPoint x="482" y="407.5"/></Array></mxGeometry></mxCell><mxCell id="dynamodb  &#xA;table/${tablename}|GetUserSettingsRole" value="PolicyDocument" style="edgeStyle=orthogonalEdgeStyle;rounded=1;orthogonalLoop=1;jettySize=auto;html=1;labelBackgroundColor=none;fontColor=#EA6B66;noEdgeStyle=1;orthogonal=1;" edge="1" parent="1" source="22" target="23"><mxGeometry relative="1" as="geometry"><Array as="points"><mxPoint x="312" y="1125"/><mxPoint x="484" y="412.5"/></Array></mxGeometry></mxCell></root></mxGraphModel>
            </diagram>
          </mxfile>